<?xml version="1.0" standalone="no"?>
<!-- Generator: Adobe Fireworks 10, Export SVG Extension by Aaron Beall (http://fireworks.abeall.com) . Version: 0.6.1  -->
<!DOCTYPE svg PUBLIC "-//W3C//DTD SVG 1.1//EN" "http://www.w3.org/Graphics/SVG/1.1/DTD/svg11.dtd">
<svg id="Untitled-Page%201" viewBox="0 0 220 185" style="background-color:#ffffff00" version="1.1"
	xmlns="http://www.w3.org/2000/svg" xmlns:xlink="http://www.w3.org/1999/xlink" xml:space="preserve"
	x="0px" y="0px" width="220px" height="185px"
>
	<path d="M 123.583 42.5779 C 123.583 42.5779 97.2182 -2.246 46.3528 11.6071 C 46.3528 11.6071 -5.2529 21.1111 13.6281 82.2728 C 13.6281 82.2728 14.719 99.7212 62.7151 133.0911 C 62.7151 133.0911 92.6037 156.8645 103.9482 168.8602 L 110.275 175.4034 L 128.6008 157.7369 L 146.9266 142.0334 L 169.1794 124.5851 C 169.1794 124.5851 205.0047 102.127 208.6672 79.6555 C 208.6672 79.6555 226.3054 40.1323 190.5595 18.5863 C 190.5595 18.5863 151.799 -4.5327 115.0746 28.401 C 115.0746 28.401 132.4551 3.6097 167.2159 4.8458 C 167.2159 4.8458 204.0858 5.5001 216.5211 40.1787 C 216.5211 40.1787 227.2443 77.2101 204.0858 102.5565 C 204.0858 102.5565 184.8873 123.0583 168.9612 133.0911 C 168.9612 133.0911 119.0016 171.4775 111.1476 185 L 83.6589 158.3912 L 49.6253 131.5643 C 49.6253 131.5643 13.41 105.61 9.2648 88.5978 C 9.2648 88.5978 -10.1518 52.3926 14.5008 22.9485 C 14.5008 22.9485 37.4081 -5.187 76.0232 3.7552 C 76.0232 3.7552 96.967 6.8087 111.584 24.6932 C 111.584 24.6932 119.1107 32.9812 120.7469 37.1252 L 123.583 42.5779 Z" stroke="#ffffff00" stroke-width="1" fill="#dc0121"/>
	<path d="M 48.3163 110.4082 C 48.3163 110.4082 86.3497 139.4161 89.9857 143.1239 C 89.9857 143.1239 108.3115 160.9359 111.584 166.8973 C 111.584 166.8973 134.0549 140.8702 152.5989 128.729 C 152.5989 128.729 190.3414 99.8666 198.1953 81.8365 C 198.1953 81.8365 215.7939 52.6106 192.3048 29.4916 C 192.3048 29.4916 185.3962 23.0938 177.0333 22.7303 C 177.0333 22.7303 196.8862 40.833 196.0137 57.6271 C 196.0137 57.6271 198.0498 79.801 172.8882 99.9392 C 172.8882 99.9392 159.5074 112.2258 150.6354 119.1324 C 150.6354 119.1324 123.0013 142.6151 120.0924 147.0498 C 120.0924 147.0498 115.5837 152.0662 112.6748 156.2102 C 112.6748 156.2102 85.3315 132.0006 72.7507 124.8031 L 59.0063 115.8608 L 48.3163 110.4082 Z" stroke="#ffffff00" stroke-width="1" fill="#dc0121"/>
	<path d="M 88.6768 22.2942 C 88.6768 22.2942 104.2755 32.545 106.5662 37.1252 L 111.1476 43.2322 C 111.1476 43.2322 112.5657 44.5408 115.2928 44.1046 C 115.2928 44.1046 117.0381 42.1416 116.1655 39.7424 C 116.1655 39.7424 104.2755 25.0204 90.2039 22.076 L 88.6768 22.2942 Z" stroke="#ffffff00" stroke-width="1" fill="#dc0121"/>
</svg>