<svg xmlns="http://www.w3.org/2000/svg" viewBox="0 0 63.3 65.516"><defs><style>.a{fill:#fcecec;}.b{fill:#ff645d;}.c{fill:#fff;}.d{fill:#fc7e78;}</style></defs><g transform="translate(-8.659)"><path class="a" d="M60.382,2.083l-45.4-.172L11.778,3.744,11,6.537l-.479,38.879,1.945,3.572,4.305.759L15.7,54.73l2.444,4.414,32.868.669,3.915,5.609,7.042-5.609,5.406-.669,3.846-3.739V15.858l-1.135-3.2-3.611-1.5L65.74,5.11Z" transform="translate(-0.673 -0.693)"/><path class="b" d="M66.721,9.912V6.88A6.888,6.888,0,0,0,59.84,0h-44.3a6.888,6.888,0,0,0-6.88,6.88V43.722A6.891,6.891,0,0,0,13.9,50.4v3.032a6.888,6.888,0,0,0,6.88,6.88H49.555a1.062,1.062,0,0,1,.9.5l2.144,3.5a2.513,2.513,0,0,0,3.726.638l5.209-4.225a1.86,1.86,0,0,1,1.169-.414h2.378a6.888,6.888,0,0,0,6.88-6.88V16.592A6.891,6.891,0,0,0,66.721,9.912ZM69.4,53.434h0a4.326,4.326,0,0,1-4.321,4.321H62.7a4.427,4.427,0,0,0-2.781.986l-5.168,4.192-2.116-3.453a3.638,3.638,0,0,0-3.082-1.726H20.777a4.326,4.326,0,0,1-4.321-4.321V50.6h1.46a1.861,1.861,0,0,1,1.169.414l5.209,4.225A2.513,2.513,0,0,0,28.02,54.6l2.144-3.5a1.062,1.062,0,0,1,.9-.5H59.841a6.888,6.888,0,0,0,6.88-6.88v-.685a1.28,1.28,0,0,0-2.559,0v.685a4.326,4.326,0,0,1-4.321,4.321H31.064a3.637,3.637,0,0,0-3.082,1.726l-2.116,3.453L20.7,49.029a4.428,4.428,0,0,0-2.781-.986H15.539a4.324,4.324,0,0,1-4.321-4.321V6.88a4.326,4.326,0,0,1,4.321-4.321h44.3A4.326,4.326,0,0,1,64.161,6.88V32.8a1.28,1.28,0,1,0,2.559,0V12.6a4.327,4.327,0,0,1,2.679,4Z" transform="translate(0 0)"/><path class="c" d="M25.88,8.794l-4.243,3.181-3.345,3.6v4.155l9.614,16.016,6.56,6.169,9.858,6.815,6.681-4.316,3.78-3.32-2-3.07-5.455-6.419H44.326l-4.369,4.141L29.525,24.486v-2.07l4.942-3.855V16.3l-6.56-7.5H25.88Z" transform="translate(-3.492 -3.188)"/><path class="c" d="M75.439,10.31l2.78-.092,1.991.092.727,2.224.637,3.063L80.21,17.655l.727,2.593,1.941,4.125v4.387L72.274,28V23.056l2-4.646L72.985,15.6v-2.39Z" transform="translate(-23.061 -3.704)"/><path class="b" d="M84.858,61.609c-.033-.049-.068-.1-.1-.145l-.018-.025q-.063-.083-.13-.163l-5.361-6.389a4.073,4.073,0,0,0-1.634-1.177q-.092-.036-.186-.068a4.1,4.1,0,0,0-3.954.74L70.123,57.19a.238.238,0,0,1-.174.055.234.234,0,0,1-.161-.084L61.008,46.7a.238.238,0,0,1,.029-.335l3.347-2.809a4.1,4.1,0,0,0,.505-5.774l-1.653-1.97-3.707-4.418a4.071,4.071,0,0,0-2.783-1.449h0a4.066,4.066,0,0,0-2.987.944L52.31,32.1l-.006,0L49.245,34.67a7.076,7.076,0,0,0-2.152,7.7c.033.1.067.192.1.287l.379.976q.927,2.388,2.068,4.668A55.325,55.325,0,0,0,70.476,70.922l.9.543a7.076,7.076,0,0,0,8.219-.631l3.059-2.567L84.1,67.05q.08-.068.157-.138l.02-.02c.044-.041.088-.084.129-.127l0,0a4.1,4.1,0,0,0,.451-5.146ZM55.4,32.846c.037-.031.076-.06.115-.088l.043-.027c.026-.017.052-.033.078-.048l.055-.029.071-.035.063-.026.068-.025.068-.021.068-.018.07-.016.07-.011.07-.009.08,0,.062,0c.047,0,.1,0,.143.006h0a1.529,1.529,0,0,1,1.045.544L59.9,35.809l2.147,2.559.886,1.056a1.541,1.541,0,0,1-.19,2.169l-.47.395-3.037-3.62-2.147-2.559L54.93,33.241ZM77.946,68.874a4.518,4.518,0,0,1-5.248.4l-.9-.543A53.072,53.072,0,0,1,49.962,42.7L49.7,42.02l-.113-.292a4.518,4.518,0,0,1,1.308-5.1l.256-.215,1.823-1.53.779.929,2.143,2.554,4.418,5.265-.917.769a2.8,2.8,0,0,0-.345,3.941l8.78,10.463a2.8,2.8,0,0,0,3.941.345l.916-.769,7.34,8.747ZM83,64.044a1.529,1.529,0,0,1-.544,1.045l-.47.395-7.34-8.747.47-.395a1.541,1.541,0,0,1,2.169.19l5.361,6.389A1.529,1.529,0,0,1,83,64.044Z" transform="translate(-33.188 -26.097)"/><path class="b" d="M325.356,48.473a5.978,5.978,0,1,0-8.642,0,6.689,6.689,0,0,0-2.381,5.118v3.794a2.141,2.141,0,0,0,2.138,2.138H325.6a2.141,2.141,0,0,0,2.138-2.138V53.591A6.69,6.69,0,0,0,325.356,48.473Zm-7.531-5.3a3.415,3.415,0,1,1-.208,1.175A3.424,3.424,0,0,1,317.826,43.174Zm7.353,13.79h-8.286V53.591a4.145,4.145,0,0,1,2.124-3.616,5.969,5.969,0,0,0,4.038,0,4.146,4.146,0,0,1,2.124,3.616Z" transform="translate(-266.56 -33.462)"/><path class="d" d="M444.861,287.128a1.258,1.258,0,0,0-.118-.221,1.226,1.226,0,0,0-.16-.194,1.278,1.278,0,0,0-1.393-.276,1.275,1.275,0,0,0-.221.118,1.244,1.244,0,0,0-.353.353,1.26,1.26,0,0,0-.118.221,1.294,1.294,0,0,0-.073.239,1.258,1.258,0,0,0-.026.25,1.283,1.283,0,0,0,.026.251,1.361,1.361,0,0,0,.073.239,1.3,1.3,0,0,0,.118.22,1.218,1.218,0,0,0,.159.194,1.3,1.3,0,0,0,.194.16,1.255,1.255,0,0,0,.221.116,1.2,1.2,0,0,0,.239.073,1.274,1.274,0,0,0,.74-.073,1.384,1.384,0,0,0,.22-.116,1.3,1.3,0,0,0,.194-.16,1.222,1.222,0,0,0,.16-.194,1.3,1.3,0,0,0,.118-.22,1.363,1.363,0,0,0,.073-.239,1.281,1.281,0,0,0,.024-.251,1.265,1.265,0,0,0-.024-.25A1.283,1.283,0,0,0,444.861,287.128Z" transform="translate(-378.238 -249.698)"/></g></svg>