<svg xmlns="http://www.w3.org/2000/svg" viewBox="0 0 40 27.473"><defs><style>.a{fill:#fff;}</style></defs><g transform="translate(0 0)"><path class="a" d="M8.78,310.634a8.741,8.741,0,1,1-8.741,8.741L0,318.127a17.483,17.483,0,0,1,17.483-17.483v5a12.406,12.406,0,0,0-8.83,3.658,12.667,12.667,0,0,0-1.242,1.445A8.806,8.806,0,0,1,8.78,310.634Zm22.478,0a8.741,8.741,0,1,1-8.741,8.741l-.039-1.249a17.483,17.483,0,0,1,17.483-17.483v5a12.406,12.406,0,0,0-8.83,3.658,12.66,12.66,0,0,0-1.242,1.445A8.806,8.806,0,0,1,31.259,310.634Z" transform="translate(0 -300.644)"/></g></svg>