<svg xmlns="http://www.w3.org/2000/svg" viewBox="0 0 60 83.085"><defs><style>.a{fill:#f39e9d;opacity:0.189;}.b{fill:#fff;}.c{fill:#ff645d;}</style></defs><g transform="translate(-0.5)"><path class="a" d="M-318.855,54.459h-56.236v79.2h53.12l3.116-5.275V54.459Z" transform="translate(377.457 -52.637)"/><path class="b" d="M40.8,14.989l-4.481-2.343H20.712l-3.994,2.343-2.234,4.33v7.316l1.025,5.673,2.084,3.181,3.119,1.169H45.86L42.62,31.3V17.54Z"/><path class="b" d="M40.8,33.747l-4.481,2.281H20.712l-3.994-2.281-2.234-4.217V22.406l1.025-5.524,2.084-3.1,3.119-1.138H45.86l-3.24,5.222v13.4Z" transform="translate(61.345 76.686) rotate(180)"/><rect class="b" width="6" height="5" transform="translate(27.5 73)"/><path class="c" d="M109.34,1.217a1.217,1.217,0,0,0,1.217,1.217h33.2a5.494,5.494,0,0,1,5.488,5.488V75.163a5.494,5.494,0,0,1-5.488,5.488H138.63a1.217,1.217,0,0,0,0,2.434h5.126a7.931,7.931,0,0,0,7.922-7.922V7.922A7.931,7.931,0,0,0,143.756,0h-33.2A1.217,1.217,0,0,0,109.34,1.217Zm0,0" transform="translate(-91.178)"/><path class="c" d="M14.511,0H8.422A7.931,7.931,0,0,0,.5,7.922V75.163a7.931,7.931,0,0,0,7.922,7.922H42.584a1.217,1.217,0,1,0,0-2.434H8.422a5.494,5.494,0,0,1-5.488-5.488V7.922A5.494,5.494,0,0,1,8.422,2.434h6.089a1.217,1.217,0,1,0,0-2.434Zm0,0" transform="translate(0 0)"/><path class="c" d="M40.5,41.431v60.751a1.432,1.432,0,0,0,1.431,1.431H86.087a1.433,1.433,0,0,0,1.431-1.431V41.431A1.432,1.432,0,0,0,86.087,40H41.931A1.432,1.432,0,0,0,40.5,41.431Zm2.434,1h42.15v58.744H42.934Zm0,0" transform="translate(-33.509 -33.509)"/><path class="c" d="M160.371,443.557a4.057,4.057,0,1,0,4.057-4.057A4.062,4.062,0,0,0,160.371,443.557Zm5.68,0a1.623,1.623,0,1,1-1.623-1.623A1.625,1.625,0,0,1,166.051,443.557Zm0,0" transform="translate(-133.928 -368.18)"/><path class="c" d="M89.649,96.624h24.376a1.217,1.217,0,0,0,1.066-1.806l-3.146-5.693V78.794a8.112,8.112,0,0,0-8.1-8.1H89.65a8.112,8.112,0,0,0-8.1,8.1v9.728A8.112,8.112,0,0,0,89.649,96.624ZM83.981,78.794a5.675,5.675,0,0,1,5.669-5.668h14.193a5.675,5.675,0,0,1,5.668,5.668V89.439a1.219,1.219,0,0,0,.152.589l2.3,4.162H89.649a5.675,5.675,0,0,1-5.668-5.668Zm0,0" transform="translate(-67.895 -59.22)"/><path class="c" d="M123.123,115.555h14.865a1.217,1.217,0,1,0,0-2.434H123.123a1.217,1.217,0,1,0,0,2.434Zm0,0" transform="translate(-101.705 -94.764)"/><path class="c" d="M123.123,145.528h14.865a1.217,1.217,0,1,0,0-2.434H123.123a1.217,1.217,0,1,0,0,2.434Zm0,0" transform="translate(-101.705 -119.873)"/><path class="c" d="M123.123,175.5h9.271a1.217,1.217,0,1,0,0-2.434h-9.271a1.217,1.217,0,1,0,0,2.434Zm0,0" transform="translate(-101.705 -144.985)"/><path class="c" d="M107.141,243.691H92.948a8.112,8.112,0,0,0-8.1,8.1v10.332L81.7,267.818a1.217,1.217,0,0,0,1.065,1.806h24.376a8.112,8.112,0,0,0,8.1-8.1v-9.728A8.112,8.112,0,0,0,107.141,243.691Zm5.669,17.831a5.675,5.675,0,0,1-5.669,5.668H84.828l2.3-4.162a1.22,1.22,0,0,0,.152-.589V251.794a5.674,5.674,0,0,1,5.668-5.668h14.193a5.675,5.675,0,0,1,5.669,5.668Zm0,0" transform="translate(-67.896 -204.146)"/><path class="c" d="M158.31,286.121H143.444a1.217,1.217,0,1,0,0,2.434H158.31a1.217,1.217,0,1,0,0-2.434Zm0,0" transform="translate(-118.728 -239.691)"/><path class="c" d="M158.31,316.094H143.444a1.217,1.217,0,0,0,0,2.434H158.31a1.217,1.217,0,1,0,0-2.434Zm0,0" transform="translate(-118.728 -264.8)"/><path class="c" d="M187.195,346.07h-9.271a1.217,1.217,0,0,0,0,2.434h9.271a1.217,1.217,0,1,0,0-2.434Zm0,0" transform="translate(-147.613 -289.912)"/></g></svg>