<svg xmlns="http://www.w3.org/2000/svg" viewBox="0 0 85 85"><defs><style>.a{fill:#b5cb17;}.b{fill:#ffebea;}.c{fill:#ff645d;}</style></defs><path class="a" d="M224,448h8.226v2.742H224Zm0,0" transform="translate(-185.613 -371.226)"/><path class="b" d="M63.882,33.94,62.94,7.651H14.851v4.734l5.755,3.276,3.891,4L28.107,26V33.94l7.015,9.953H14.851V76.368l.678,3.839,2.414,1.5,4.686,1.124H60.3l2.662-1.854.925-3.493V66.148L60.3,64.907,55.228,61.78l-3.242-4.356-1.592-5.31V47.079l-1.06-3.186L45.1,39.871l-2.875-3.7,5.245-.771,8.993.771Z" transform="translate(3.182 0.737)"/><path class="c" d="M68.548,35.645V6.855A6.863,6.863,0,0,0,61.694,0H23.306a6.863,6.863,0,0,0-6.855,6.855V13.71a16.452,16.452,0,1,0,0,32.9V78.145A6.863,6.863,0,0,0,23.306,85H61.694a6.863,6.863,0,0,0,6.855-6.855v-9.6a16.452,16.452,0,0,0,0-32.9ZM23.306,2.742H61.694a4.118,4.118,0,0,1,4.113,4.113V8.226H19.194V6.855A4.118,4.118,0,0,1,23.306,2.742ZM2.742,30.161a13.71,13.71,0,0,1,27.419,0v5.484a1.36,1.36,0,0,0,.331.891l6.286,7.335H16.452A13.725,13.725,0,0,1,2.742,30.161Zm58.952,52.1H23.306a4.118,4.118,0,0,1-4.113-4.113V74.032H65.806v4.113A4.118,4.118,0,0,1,61.694,82.258ZM65.806,71.29H19.194V46.613H39.758A1.37,1.37,0,0,0,40.8,44.351l-7.9-9.213V30.161a16.463,16.463,0,0,0-13.71-16.2v-2.99H65.806V35.645H45.242A1.37,1.37,0,0,0,44.2,37.907l7.9,9.213V52.1a16.463,16.463,0,0,0,13.71,16.2Zm2.742-5.484A13.725,13.725,0,0,1,54.839,52.1V46.613a1.36,1.36,0,0,0-.331-.891l-6.286-7.335H68.548a13.71,13.71,0,0,1,0,27.419Zm0,0"/><path class="c" d="M375.693,263l-13.71-6.855A1.371,1.371,0,0,0,360,257.369v13.71a1.372,1.372,0,0,0,1.984,1.227l13.71-6.855a1.372,1.372,0,0,0,0-2.454Zm-12.951,5.863v-9.272l9.273,4.636Zm0,0" transform="translate(-298.307 -212.127)"/><path class="c" d="M375.693,263l-13.71-6.855A1.371,1.371,0,0,0,360,257.369v13.71a1.372,1.372,0,0,0,1.984,1.227l13.71-6.855a1.372,1.372,0,0,0,0-2.454Zm-12.951,5.863v-9.272l9.273,4.636Zm0,0" transform="translate(-349.307 -233.984)"/></svg>