<svg xmlns="http://www.w3.org/2000/svg" xmlns:xlink="http://www.w3.org/1999/xlink" viewBox="0 0 379.438 630.144"><defs><style>.a{fill:#416497;opacity:0.22;}.b{fill:url(#a);}.c{fill:url(#d);}.d{fill:url(#e);}.e{fill:url(#f);}.f{fill:url(#g);}.g{fill:url(#n);}.h{fill:url(#o);}.i,.k{fill:#f3f3f3;}.j{fill:#fff;}.k{stroke:#f9f8f8;}.l{fill:#eee;}.m{fill:#e2e2e2;}.n{filter:url(#b);}</style><linearGradient id="a" x1="0.5" x2="0.5" y2="1" gradientUnits="objectBoundingBox"><stop offset="0" stop-color="#676767"/><stop offset="1" stop-color="#020202"/></linearGradient><filter id="b" x="0" y="0" width="379.438" height="614.722" filterUnits="userSpaceOnUse"><feOffset input="SourceAlpha"/><feGaussianBlur stdDeviation="24" result="c"/><feFlood flood-opacity="0.161"/><feComposite operator="in" in2="c"/><feComposite in="SourceGraphic"/></filter><linearGradient id="d" x1="0.5" x2="0.5" y2="1" gradientUnits="objectBoundingBox"><stop offset="0" stop-color="#888"/><stop offset="1" stop-color="#4a4a4a"/></linearGradient><linearGradient id="e" x1="0.5" x2="0.5" y2="1" gradientUnits="objectBoundingBox"><stop offset="0" stop-color="#333"/><stop offset="1" stop-color="#292929"/></linearGradient><linearGradient id="f" x1="0.5" x2="0.5" y2="1" gradientUnits="objectBoundingBox"><stop offset="0" stop-color="#fff"/><stop offset="1" stop-color="#e5e5e5"/></linearGradient><linearGradient id="g" x1="1" y1="0.377" x2="0" y2="0.377" gradientUnits="objectBoundingBox"><stop offset="0" stop-color="#fff" stop-opacity="0"/><stop offset="0.322" stop-color="#fdfdfd" stop-opacity="0"/><stop offset="1" stop-color="#dadada"/></linearGradient><linearGradient id="n" x1="0.5" x2="0.5" y2="1" gradientUnits="objectBoundingBox"><stop offset="0" stop-color="#f3f3f3"/><stop offset="1" stop-color="#fff"/></linearGradient><linearGradient id="o" x1="0.5" x2="0.5" y2="1" gradientUnits="objectBoundingBox"><stop offset="0" stop-color="#fff"/><stop offset="1" stop-color="#f3f3f3"/></linearGradient></defs><g transform="translate(-349.198 -1677.714)"><path class="a" d="M195.279,0c46.508,0,53.332,15.055,86.3,31.558,1.089.545,30.856,7.582,32.109,8.2,40.6,19.9,39.713,49.519,39.713,82.3,0,60.039-83.964,120.8-190.342,120.8S23.672,172,23.672,111.963c0-33.8-6.222-71.343,30.937-92.242C83.264,3.6,148.791,0,195.279,0Z" transform="translate(351 2054)"/><path class="a" d="M195.279,0c46.508,0,53.332,15.055,86.3,31.558,1.089.545,30.856,7.582,32.109,8.2,40.6,19.9,39.713,49.519,39.713,82.3,0,60.039-83.964,120.8-190.342,120.8S23.672,172,23.672,111.963c0-33.8-6.222-71.343,30.937-92.242C83.264,3.6,148.791,0,195.279,0Z" transform="translate(368 2065)"/><g transform="translate(238.528 1675.714)"><g class="n" transform="matrix(1, 0, 0, 1, 110.67, 2)"><path class="b" d="M31.726,0H203.713c17.522,0,31.726,13.968,31.726,31.2V439.523c0,17.231-14.2,31.2-31.726,31.2H31.726C14.2,470.722,0,456.754,0,439.523V31.2C0,13.968,14.2,0,31.726,0Z" transform="translate(72 72)"/></g><path class="c" d="M26.16,0H200.373a25.945,25.945,0,0,1,26.16,25.726V436.239a25.945,25.945,0,0,1-26.16,25.726H26.16A25.945,25.945,0,0,1,0,436.239V25.726A25.945,25.945,0,0,1,26.16,0Z" transform="translate(187.123 78.379)"/><path class="d" d="M24.736,0H199.571c13.661,0,24.736,10.834,24.736,24.2V435.577c0,13.365-11.075,24.2-24.736,24.2H24.736C11.075,459.775,0,448.941,0,435.577V24.2C0,10.834,11.075,0,24.736,0Z" transform="translate(188.236 79.474)"/><g transform="translate(417.552 183.47)"><g transform="translate(0 0)"><path class="e" d="M0,0H.783a2,2,0,0,1,2,2V50.546a2,2,0,0,1-2,2H0a0,0,0,0,1,0,0V0A0,0,0,0,1,0,0Z"/><path class="f" d="M0,0H.783a2,2,0,0,1,2,2V50.546a2,2,0,0,1-2,2H0a0,0,0,0,1,0,0V0A0,0,0,0,1,0,0Z"/></g></g><g transform="translate(181 172.523)"><path class="e" d="M2,0h.783a0,0,0,0,1,0,0V32.841a0,0,0,0,1,0,0H2a2,2,0,0,1-2-2V2A2,2,0,0,1,2,0Z" transform="translate(0)"/><path class="f" d="M0,0H.783a2,2,0,0,1,2,2V30.841a2,2,0,0,1-2,2H0a0,0,0,0,1,0,0V0A0,0,0,0,1,0,0Z" transform="translate(2.783 32.841) rotate(180)"/></g><g transform="translate(181 215.217)"><path class="e" d="M2,0h.783a0,0,0,0,1,0,0V32.841a0,0,0,0,1,0,0H2a2,2,0,0,1-2-2V2A2,2,0,0,1,2,0Z" transform="translate(0)"/><path class="f" d="M0,0H.783a2,2,0,0,1,2,2V30.841a2,2,0,0,1-2,2H0a0,0,0,0,1,0,0V0A0,0,0,0,1,0,0Z" transform="translate(2.783 32.841) rotate(180)"/></g><g transform="translate(181 138.04)"><path class="e" d="M1,0H2.783a0,0,0,0,1,0,0V17.515a0,0,0,0,1,0,0H1a1,1,0,0,1-1-1V1A1,1,0,0,1,1,0Z" transform="translate(0)"/><path class="f" d="M0,0H1.783a1,1,0,0,1,1,1V16.515a1,1,0,0,1-1,1H0a0,0,0,0,1,0,0V0A0,0,0,0,1,0,0Z" transform="translate(2.783 17.515) rotate(180)"/></g><g transform="translate(324.601 87.684)"><ellipse class="g" cx="4.105" cy="4.105" rx="4.105" ry="4.105" transform="translate(0 0)"/><circle class="h" cx="3.558" cy="3.558" r="3.558" transform="translate(0.547 0.547)"/><ellipse class="i" cx="2.463" cy="2.463" rx="2.463" ry="2.463" transform="translate(1.642 1.642)"/><ellipse class="j" cx="0.821" cy="0.547" rx="0.821" ry="0.547" transform="translate(3.284 1.642)"/></g><path class="k" d="M2.448.5H33.061a1.932,1.932,0,0,1,1.948,1.916,1.932,1.932,0,0,1-1.948,1.916H2.448A1.932,1.932,0,0,1,.5,2.416,1.932,1.932,0,0,1,2.448.5Z" transform="translate(282.635 89.647)"/><path class="l" d="M187.572,444.449H21.15A21,21,0,0,1,0,423.65V20.8A21,21,0,0,1,21.15,0h22.41a3.76,3.76,0,0,1,2.911,2.83c.091.4.187.915.3,1.514.213,1.154.478,2.586.872,4.033a10.5,10.5,0,0,0,10.313,8.061c2.85.029,20.618.035,35.022.035,26.5,0,56.9-.021,58.323-.035a10.5,10.5,0,0,0,10.313-8.061c.395-1.45.66-2.884.872-4.036.111-.6.207-1.117.3-1.511A3.637,3.637,0,0,1,165.668,0h21.9a21,21,0,0,1,21.15,20.8V423.65A21,21,0,0,1,187.572,444.449Z" transform="translate(196.028 87.136)"/><path class="m" d="M1.391,0H70.966a1.38,1.38,0,0,1,1.391,1.368,1.38,1.38,0,0,1-1.391,1.368H1.391A1.38,1.38,0,0,1,0,1.368,1.38,1.38,0,0,1,1.391,0Z" transform="translate(264.489 522.281)"/></g></g></svg>