<svg xmlns="http://www.w3.org/2000/svg" xmlns:xlink="http://www.w3.org/1999/xlink" viewBox="0 0 473.168 802.118"><defs><style>.a{fill:url(#a);}.b{fill:url(#d);}.c{fill:url(#e);}.d{fill:url(#f);}.e{fill:url(#g);}.f{fill:url(#n);}.g,.i{fill:#f3f3f3;}.h{fill:#fff;}.i{stroke:#f9f8f8;}.j{fill:#eee;}.k{fill:#e2e2e2;}.l{filter:url(#b);}</style><linearGradient id="a" x1="0.5" x2="0.5" y2="1" gradientUnits="objectBoundingBox"><stop offset="0" stop-color="#fff"/><stop offset="1" stop-color="#e3e3e3"/></linearGradient><filter id="b" x="0" y="0" width="473.168" height="802.118" filterUnits="userSpaceOnUse"><feOffset input="SourceAlpha"/><feGaussianBlur stdDeviation="24" result="c"/><feFlood flood-opacity="0.161"/><feComposite operator="in" in2="c"/><feComposite in="SourceGraphic"/></filter><linearGradient id="d" x1="0.5" x2="0.5" y2="1" gradientUnits="objectBoundingBox"><stop offset="0" stop-color="#f6f6f6"/><stop offset="1" stop-color="#ececec"/></linearGradient><linearGradient id="e" x1="0.5" x2="0.5" y2="1" gradientUnits="objectBoundingBox"><stop offset="0" stop-color="#fff"/><stop offset="1" stop-color="#f3f3f3"/></linearGradient><linearGradient id="f" x1="0.5" x2="0.5" y2="1" gradientUnits="objectBoundingBox"><stop offset="0" stop-color="#fff"/><stop offset="1" stop-color="#e5e5e5"/></linearGradient><linearGradient id="g" x1="1" y1="0.377" x2="0" y2="0.377" gradientUnits="objectBoundingBox"><stop offset="0" stop-color="#fff" stop-opacity="0"/><stop offset="0.322" stop-color="#fdfdfd" stop-opacity="0"/><stop offset="1" stop-color="#dadada"/></linearGradient><linearGradient id="n" x1="0.5" x2="0.5" y2="1" gradientUnits="objectBoundingBox"><stop offset="0" stop-color="#f3f3f3"/><stop offset="1" stop-color="#fff"/></linearGradient></defs><g transform="translate(-111.335 -2)"><g class="l" transform="matrix(1, 0, 0, 1, 111.33, 2)"><path class="a" d="M44.356,0H284.812c24.5,0,44.356,19.529,44.356,43.619V614.5c0,24.09-19.859,43.62-44.356,43.62H44.356C19.859,658.118,0,638.589,0,614.5V43.619C0,19.529,19.859,0,44.356,0Z" transform="translate(72 72)"/></g><path class="b" d="M36.574,0H280.143c20.2,0,36.574,16.1,36.574,35.967v573.94c0,19.864-16.375,35.967-36.574,35.967H36.574c-20.2,0-36.574-16.1-36.574-35.967V35.967C0,16.1,16.375,0,36.574,0Z" transform="translate(189.56 80.122)"/><path class="c" d="M34.583,0H279.021c19.1,0,34.583,15.147,34.583,33.832V608.981c0,18.685-15.483,33.832-34.583,33.832H34.583C15.483,642.813,0,627.666,0,608.981V33.832C0,15.147,15.483,0,34.583,0Z" transform="translate(191.116 81.653)"/><g transform="translate(511.724 227.051)"><g transform="translate(0 0)"><path class="d" d="M0,0H1.891a2,2,0,0,1,2,2V71.464a2,2,0,0,1-2,2H0a0,0,0,0,1,0,0V0A0,0,0,0,1,0,0Z"/><path class="e" d="M0,0H1.891a2,2,0,0,1,2,2V71.464a2,2,0,0,1-2,2H0a0,0,0,0,1,0,0V0A0,0,0,0,1,0,0Z"/></g></g><g transform="translate(181 211.746)"><path class="d" d="M2,0H3.891a0,0,0,0,1,0,0V45.915a0,0,0,0,1,0,0H2a2,2,0,0,1-2-2V2A2,2,0,0,1,2,0Z" transform="translate(0)"/><path class="e" d="M0,0H1.891a2,2,0,0,1,2,2V43.915a2,2,0,0,1-2,2H0a0,0,0,0,1,0,0V0A0,0,0,0,1,0,0Z" transform="translate(3.891 45.915) rotate(180)"/></g><g transform="translate(181 271.435)"><path class="d" d="M2,0H3.891a0,0,0,0,1,0,0V45.915a0,0,0,0,1,0,0H2a2,2,0,0,1-2-2V2A2,2,0,0,1,2,0Z" transform="translate(0)"/><path class="e" d="M0,0H1.891a2,2,0,0,1,2,2V43.915a2,2,0,0,1-2,2H0a0,0,0,0,1,0,0V0A0,0,0,0,1,0,0Z" transform="translate(3.891 45.915) rotate(180)"/></g><g transform="translate(181 163.535)"><path class="d" d="M1,0H3.891a0,0,0,0,1,0,0V24.488a0,0,0,0,1,0,0H1a1,1,0,0,1-1-1V1A1,1,0,0,1,1,0Z" transform="translate(0)"/><path class="e" d="M0,0H2.891a1,1,0,0,1,1,1V23.488a1,1,0,0,1-1,1H0a0,0,0,0,1,0,0V0A0,0,0,0,1,0,0Z" transform="translate(3.891 24.488) rotate(180)"/></g><g transform="translate(381.769 93.131)"><ellipse class="f" cx="5.739" cy="5.739" rx="5.739" ry="5.739" transform="translate(0 0)"/><circle class="c" cx="4.974" cy="4.974" r="4.974" transform="translate(0.765 0.765)"/><ellipse class="g" cx="3.444" cy="3.444" rx="3.444" ry="3.444" transform="translate(2.296 2.296)"/><ellipse class="h" cx="1.148" cy="0.765" rx="1.148" ry="0.765" transform="translate(4.592 2.296)"/></g><path class="i" d="M3.224.5h42.8a2.7,2.7,0,0,1,2.724,2.678,2.7,2.7,0,0,1-2.724,2.678H3.224A2.7,2.7,0,0,1,.5,3.178,2.7,2.7,0,0,1,3.224.5Z" transform="translate(323.295 96.075)"/><path class="j" d="M262.244,621.386H29.57C13.265,621.386,0,608.341,0,592.306V29.08C0,13.045,13.265,0,29.57,0H60.9a5.257,5.257,0,0,1,4.07,3.957c.128.554.262,1.279.417,2.117.3,1.614.668,3.616,1.219,5.638.712,2.617,3.856,11.163,14.419,11.27,3.985.04,28.827.049,48.965.049,37.046,0,79.553-.029,81.542-.049,10.563-.107,13.707-8.653,14.419-11.27.552-2.027.922-4.032,1.22-5.642.156-.843.289-1.562.416-2.113A5.085,5.085,0,0,1,231.621,0h30.623c16.305,0,29.57,13.045,29.57,29.08V592.306C291.815,608.341,278.55,621.386,262.244,621.386Z" transform="translate(202.011 92.366)"/><path class="k" d="M1.945,0H99.217a1.929,1.929,0,0,1,1.945,1.913,1.929,1.929,0,0,1-1.945,1.913H1.945A1.929,1.929,0,0,1,0,1.913,1.929,1.929,0,0,1,1.945,0Z" transform="translate(297.726 700.743)"/></g></svg>